<svg xmlns="http://www.w3.org/2000/svg" xmlns:xlink="http://www.w3.org/1999/xlink" x="0px" y="0px" width="48px" height="48px" viewBox="0 0 48 48"><g >
<path fill="#a9a9a9" d="M46.9,27.829C45.908,17.084,37.343,8.337,26.619,7.146C12.769,5.607,1,16.455,1,30&#10;&#9;c0,3.765,0.91,7.322,2.521,10.462C3.692,40.795,4.042,41,4.416,41h39.169c0.374,0,0.723-0.205,0.894-0.538&#10;&#9;C46.396,36.724,47.321,32.397,46.9,27.829z M23,14c0-0.552,0.447-1,1-1s1,0.448,1,1v2c0,0.552-0.447,1-1,1s-1-0.448-1-1V14z M10,31&#10;&#9;H8c-0.553,0-1-0.448-1-1s0.447-1,1-1h2c0.553,0,1,0.448,1,1S10.553,31,10,31z M14.808,20.808c-0.195,0.195-0.451,0.293-0.707,0.293&#10;&#9;s-0.512-0.098-0.707-0.293l-1.414-1.414c-0.391-0.391-0.391-1.023,0-1.414s1.023-0.391,1.414,0l1.414,1.414&#10;&#9;C15.198,19.784,15.198,20.417,14.808,20.808z M24.87,35.87c-1.586,0.481-3.261-0.414-3.742-2&#10;&#9;c-0.481-1.586-1.483-15.225-1.483-15.225s6.744,11.898,7.225,13.483S26.456,35.389,24.87,35.87z M36.021,19.394l-1.414,1.414&#10;&#9;c-0.195,0.195-0.451,0.293-0.707,0.293s-0.512-0.098-0.707-0.293c-0.391-0.391-0.391-1.023,0-1.414l1.414-1.414&#10;&#9;c0.391-0.391,1.023-0.391,1.414,0S36.411,19.003,36.021,19.394z M40,31h-2c-0.553,0-1-0.448-1-1s0.447-1,1-1h2c0.553,0,1,0.448,1,1&#10;&#9;S40.553,31,40,31z"/>
</g></svg>
