<svg xmlns="http://www.w3.org/2000/svg" xmlns:xlink="http://www.w3.org/1999/xlink" x="0px" y="0px" width="48px" height="48px" viewBox="0 0 48 48"><g >
<path data-color="color-2" fill="#a9a9a9" d="M46,25c-0.24,0-0.48-0.086-0.672-0.26L24,5.351L2.673,24.74&#10;&#9;c-0.41,0.371-1.042,0.341-1.413-0.067c-0.372-0.409-0.342-1.041,0.067-1.413l22-20c0.382-0.346,0.964-0.346,1.346,0l22,20&#10;&#9;c0.409,0.372,0.438,1.004,0.067,1.413C46.542,24.889,46.271,25,46,25z"/>
<path fill="#a9a9a9" d="M24,8.054L7,23.508V43c0,1.105,0.895,2,2,2h10c0.552,0,1-0.448,1-1v-9h8v9c0,0.552,0.448,1,1,1h10&#10;&#9;c1.105,0,2-0.895,2-2v-19.49L24,8.054z M28,27c0,0.553-0.448,1-1,1h-6c-0.552,0-1-0.447-1-1v-6c0-0.553,0.448-1,1-1h6&#10;&#9;c0.552,0,1,0.447,1,1V27z"/>
</g></svg>
