<svg xmlns="http://www.w3.org/2000/svg" xmlns:xlink="http://www.w3.org/1999/xlink" x="0px" y="0px" width="48px" height="48px" viewBox="0 0 48 48"><g >
<path data-color="color-2" fill="#a9a9a9" d="M18,32c-0.512,0-1.023-0.195-1.414-0.586c-0.781-0.781-0.781-2.047,0-2.828l12-12&#10;&#9;c0.781-0.781,2.047-0.781,2.828,0s0.781,2.047,0,2.828l-12,12C19.023,31.805,18.512,32,18,32z"/>
<path fill="#a9a9a9" d="M22.624,31.032c0.085,1.639-0.476,3.304-1.724,4.554l-5.656,5.657c-2.34,2.336-6.146,2.338-8.486,0&#10;&#9;c-2.339-2.34-2.339-6.146,0-8.486l5.657-5.656c1.17-1.17,2.706-1.754,4.242-1.754c0.104,0,0.207,0.024,0.311,0.03l3.338-3.338&#10;&#9;c-3.587-1.4-7.825-0.659-10.719,2.234l-5.657,5.656c-3.898,3.899-3.898,10.243,0,14.143c1.949,1.949,4.511,2.924,7.071,2.924&#10;&#9;s5.122-0.975,7.071-2.924l5.656-5.657c2.894-2.893,3.635-7.132,2.234-10.719L22.624,31.032z"/>
<path fill="#a9a9a9" d="M31.032,22.624c1.639,0.085,3.304-0.476,4.554-1.724l5.657-5.656c2.336-2.34,2.338-6.146,0-8.486&#10;&#9;c-2.34-2.339-6.146-2.339-8.486,0l-5.656,5.657c-1.17,1.17-1.754,2.706-1.754,4.242c0,0.104,0.024,0.207,0.03,0.311l-3.338,3.338&#10;&#9;c-1.4-3.587-0.659-7.825,2.234-10.719l5.656-5.657c3.899-3.898,10.243-3.898,14.143,0c1.949,1.949,2.924,4.511,2.924,7.071&#10;&#9;s-0.975,5.122-2.924,7.071l-5.657,5.656c-2.893,2.894-7.132,3.635-10.719,2.234L31.032,22.624z"/>
</g></svg>