<svg xmlns="http://www.w3.org/2000/svg" xmlns:xlink="http://www.w3.org/1999/xlink" x="0px" y="0px" width="48px" height="48px" viewBox="0 0 48 48"><g >
<path data-color="color-2" fill="#a9a9a9" d="M6,3C3.24316,3,1,5.24316,1,8s2.24316,5,5,5s5-2.24316,5-5S8.75684,3,6,3z"/>
<path data-color="color-2" fill="#a9a9a9" d="M6,19c-2.75684,0-5,2.24316-5,5s2.24316,5,5,5s5-2.24316,5-5S8.75684,19,6,19z"/>
<path data-color="color-2" fill="#a9a9a9" d="M6,35c-2.75684,0-5,2.24316-5,5s2.24316,5,5,5s5-2.24316,5-5S8.75684,35,6,35z"/>
<path fill="#a9a9a9" d="M46,6H16c-0.55225,0-1,0.44769-1,1v2c0,0.55225,0.44775,1,1,1h30c0.55231,0,1-0.44775,1-1V7&#10;&#9;C47,6.44769,46.55231,6,46,6z"/>
<path fill="#a9a9a9" d="M16,26h18c0.55231,0,1-0.44775,1-1v-2c0-0.55231-0.44769-1-1-1H16c-0.55225,0-1,0.44769-1,1v2&#10;&#9;C15,25.55225,15.44775,26,16,26z"/>
<path fill="#a9a9a9" d="M46,38H16c-0.55225,0-1,0.44769-1,1v2c0,0.55225,0.44775,1,1,1h30c0.55231,0,1-0.44775,1-1v-2&#10;&#9;C47,38.44769,46.55231,38,46,38z"/>
</g></svg>