<svg xmlns="http://www.w3.org/2000/svg" xmlns:xlink="http://www.w3.org/1999/xlink" x="0px" y="0px" width="48px" height="48px" viewBox="0 0 48 48"><g >
<path fill="#a9a9a9" d="M47,6H15c-0.55225,0-1,0.44769-1,1v2c0,0.55225,0.44775,1,1,1h32c0.55231,0,1-0.44775,1-1V7&#10;&#9;C48,6.44769,47.55231,6,47,6z"/>
<path fill="#a9a9a9" d="M15,26h20c0.55231,0,1-0.44775,1-1v-2c0-0.55231-0.44769-1-1-1H15c-0.55225,0-1,0.44769-1,1v2&#10;&#9;C14,25.55225,14.44775,26,15,26z"/>
<path fill="#a9a9a9" d="M47,38H15c-0.55225,0-1,0.44769-1,1v2c0,0.55225,0.44775,1,1,1h32c0.55231,0,1-0.44775,1-1v-2&#10;&#9;C48,38.44769,47.55231,38,47,38z"/>
<path data-color="color-2" fill="#a9a9a9" d="M9.5177,11.76276l-1.47656-0.12598c-0.27051-0.01758-0.28809-0.07129-0.28809-0.35944V2.81439&#10;&#9;H3.4317L3.23346,4.29095l1.56641,0.32422C4.98053,4.66888,5.03424,4.77728,5.03424,4.9931v6.28424&#10;&#9;c0,0.26959-0.03613,0.34186-0.28809,0.35944l-1.54883,0.12598v1.42285H9.5177V11.76276z"/>
<path data-color="color-2" fill="#a9a9a9" d="M5.98883,20.62445c0.9541,0,1.27832,0.48535,1.27832,1.15234&#10;&#9;c0,1.02637-0.77441,1.74615-2.59277,3.5108l-2.41315,2.35846v1.6748h8.31848v-3.38483h-1.9082l-0.25195,1.42188&#10;&#9;c-0.03613,0.18073-0.1084,0.21686-0.28809,0.21686H5.48395l2.03516-1.94537c1.31451-1.25977,2.48444-2.37598,2.48444-4.0694&#10;&#9;c0-1.69238-0.99023-2.88086-3.78131-2.88086c-1.89062,0-4.0694,0.46875-4.08698,3.33105l2.4483,0.2168&#10;&#9;C4.58356,20.94867,4.99762,20.62445,5.98883,20.62445z"/>
<path data-color="color-2" fill="#a9a9a9" d="M8.33801,39.80225v-0.07227c1.13477-0.3418,2.07129-1.29596,2.07129-2.80865&#10;&#9;c0-1.92676-1.0625-2.98932-3.83502-2.98932c-1.89062,0-4.03326,0.48639-4.03326,3.33112l2.46686,0.2168&#10;&#9;c0-1.27832,0.46777-1.60254,1.43945-1.60254c1.00879,0,1.31451,0.55762,1.31451,1.24219c0,1.15234-0.70221,1.78229-1.99811,1.9444&#10;&#9;l-0.88281,0.1084v1.7998c0.54102-0.08984,0.88281-0.12598,1.33301-0.12598c1.11621,0,1.80084,0.4502,1.80084,1.54883&#10;&#9;c0,1.2608-0.86432,1.62018-1.87311,1.62018c-1.26074,0-2.0166-0.52148-2.70117-1.18756L2,44.41168&#10;&#9;c0.91895,1.00879,2.53912,1.65625,4.35748,1.65625c2.57526,0,4.35748-1.11621,4.35748-3.49323&#10;&#9;C10.71497,40.95459,9.86926,40.03662,8.33801,39.80225z"/>
</g></svg>