<svg xmlns="http://www.w3.org/2000/svg" xmlns:xlink="http://www.w3.org/1999/xlink" x="0px" y="0px" width="64px" height="64px" viewBox="0 0 64 64"><path  fill="#e5e5e5" d="M38.9,21c-1-7.9-7.8-14-15.9-14C14.7,7,7.8,13.3,7.1,21.5C3.5,22.7,1,26.1,1,30c0,5,4,9,9,9h28c5,0,9-4,9-9&#10;&#9;C47,25.3,43.4,21.5,38.9,21z M30.7,24.7C30.5,24.9,30.3,25,30,25s-0.5-0.1-0.7-0.3L25,20.4V34c0,0.6-0.4,1-1,1s-1-0.4-1-1V20.4&#10;&#9;l-4.3,4.3c-0.4,0.4-1,0.4-1.4,0s-0.4-1,0-1.4l6-6c0.1-0.1,0.2-0.2,0.3-0.2c0.2-0.1,0.5-0.1,0.8,0c0.1,0.1,0.2,0.1,0.3,0.2l6,6&#10;&#9;C31.1,23.7,31.1,24.3,30.7,24.7z" transform="translate(8, 8)"/></svg>