<svg xmlns="http://www.w3.org/2000/svg" xmlns:xlink="http://www.w3.org/1999/xlink" x="0px" y="0px" width="64px" height="64px" viewBox="0 0 64 64"><g  transform="translate(8, 8)">
<path fill="#e74c3c" d="M44.7,9.3l-6-6c-0.4-0.4-1-0.4-1.4,0L24,16.6L10.7,3.3c-0.4-0.4-1-0.4-1.4,0l-6,6c-0.4,0.4-0.4,1,0,1.4&#10;&#9;L16.6,24L3.3,37.3c-0.4,0.4-0.4,1,0,1.4l6,6c0.4,0.4,1,0.4,1.4,0L24,31.4l13.3,13.3c0.2,0.2,0.5,0.3,0.7,0.3s0.5-0.1,0.7-0.3l6-6&#10;&#9;c0.4-0.4,0.4-1,0-1.4L31.4,24l13.3-13.3C45.1,10.3,45.1,9.7,44.7,9.3z"/>
</g></svg>